<?xml version="1.0" standalone="no"?>
<!DOCTYPE svg PUBLIC "-//W3C//DTD SVG 20010904//EN"
 "http://www.w3.org/TR/2001/REC-SVG-20010904/DTD/svg10.dtd">
<svg version="1.0" xmlns="http://www.w3.org/2000/svg"
 width="1024.000000pt" height="1024.000000pt" viewBox="0 0 1024.000000 1024.000000"
 preserveAspectRatio="xMidYMid meet">
<metadata>
Created by potrace 1.11, written by Peter Selinger 2001-2013
</metadata>
<g transform="translate(0.000000,1024.000000) scale(0.100000,-0.100000)"
fill="#000000" stroke="none">
<path d="M8110 9963 c0 -16 -7 -73 -15 -128 -9 -55 -17 -113 -20 -130 -2 -16
-15 -88 -30 -158 -87 -428 -243 -753 -475 -988 -89 -90 -164 -152 -402 -330
-250 -187 -299 -227 -415 -346 -305 -309 -514 -733 -659 -1337 -25 -106 -29
-124 -39 -176 -23 -121 -45 -192 -76 -252 -18 -35 -43 -84 -57 -110 -31 -60
-26 -77 40 -164 290 -378 499 -793 651 -1294 23 -75 79 -298 108 -430 26 -119
70 -292 81 -315 23 -52 42 -32 163 175 100 172 221 365 420 675 28 44 71 112
96 150 24 39 47 72 51 73 5 2 8 8 8 13 0 5 24 49 54 97 137 223 255 454 341
668 68 168 168 502 190 634 3 19 10 51 15 70 5 19 18 94 29 165 27 178 29 191
36 265 4 36 8 76 11 89 2 14 6 66 10 115 3 50 8 107 10 126 23 224 23 1006 -1
1450 -9 173 -16 302 -20 355 -3 33 -7 96 -10 140 -8 110 -13 179 -21 255 -3
36 -7 81 -9 100 -2 19 -6 71 -10 115 -4 44 -9 91 -10 105 -1 14 -5 57 -9 95
-3 39 -9 99 -13 135 -3 36 -6 77 -6 93 0 15 -4 27 -9 27 -4 0 -8 -12 -8 -27z"/>
<path d="M1274 8073 c3 -16 8 -55 11 -88 28 -272 151 -736 295 -1115 18 -47
38 -102 46 -122 51 -138 255 -573 344 -733 18 -33 42 -76 53 -95 129 -234 327
-535 496 -754 42 -54 85 -111 96 -125 17 -24 101 -124 130 -157 6 -6 39 -44
75 -85 91 -102 319 -330 420 -419 46 -41 90 -79 96 -85 34 -31 116 -98 160
-131 28 -22 73 -56 100 -77 196 -152 515 -345 779 -471 309 -149 714 -283
1040 -346 132 -25 155 -34 155 -58 0 -10 3 -22 7 -26 17 -17 127 -402 139
-486 1 -8 9 -51 17 -95 9 -44 19 -98 22 -120 21 -138 35 -250 40 -315 3 -41 8
-88 10 -105 23 -176 24 -836 0 -1065 -2 -19 -6 -71 -9 -115 -6 -75 -10 -112
-21 -195 -3 -19 -7 -62 -11 -95 -3 -33 -8 -73 -10 -88 -4 -24 -1 -28 13 -23
24 6 103 27 125 32 10 2 27 6 39 9 11 2 29 7 39 10 10 3 27 7 37 9 10 2 47 12
83 21 36 9 72 18 80 20 67 14 316 79 322 84 6 5 11 61 24 236 24 335 24 2107
0 2232 -3 11 -7 64 -10 119 -4 54 -8 110 -10 124 -2 14 -8 57 -12 95 -4 39 -8
72 -9 75 -1 3 -5 34 -9 70 -4 36 -10 74 -11 85 -2 11 -7 40 -10 65 -4 25 -22
124 -41 220 -31 158 -44 212 -99 415 -94 351 -292 787 -487 1073 -48 70 -191
254 -228 293 -8 8 -38 40 -66 70 -80 85 -205 200 -290 268 -44 34 -86 68 -95
76 -126 101 -433 276 -660 375 -52 23 -107 48 -124 55 -16 7 -57 23 -90 34
-33 12 -69 26 -80 31 -97 45 -804 246 -1040 296 -11 2 -29 6 -40 8 -205 42
-817 211 -910 250 -16 7 -57 23 -90 36 -343 132 -602 340 -727 585 -42 82 -65
137 -79 193 -13 54 -33 73 -25 25z"/>
</g>
</svg>
